# xmcd
#
# Track frame offsets: 
#        150
#        15533
#        30284
#        46567
#        63571
#        82753
#        103430
#        119473
#        136582
#        154586
#        164442
#        184812
#
# Disc length: 2753 seconds
#
# Revision: 1
# Processed by: cddbd v1.5.2PL0 Copyright (c) Steve Scherf et al.
# Submitted via: ExactAudioCopy v1.0b3
#
DISCID=8a0abf0c
DTITLE=Amestoy Trio - Sport and Couture
DYEAR=2008
DGENRE=Jazz
TTITLE0=Paquerette
TTITLE1=Le barbu
TTITLE2=Sport et couture
TTITLE3=Fantomas
TTITLE4=La verite
TTITLE5=L'autre
TTITLE6=A visto
TTITLE7=Rural swing
TTITLE8=Bamako
TTITLE9=Swing valse
TTITLE10=Besame mucho
TTITLE11=New York
EXTD=YEAR: 2008
EXTT0=
EXTT1=
EXTT2=
EXTT3=
EXTT4=
EXTT5=
EXTT6=
EXTT7=
EXTT8=
EXTT9=
EXTT10=
EXTT11=
PLAYORDER=
